# xmcd
#
# Track frame offsets:
#	187
#	18992
#	41197
#	63705
#	81405
#	99487
#	114107
#	130517
#	144695
#	161787
#	176505
#	194842
#	207180
#	220880
#	240905
#	258075
#	277025
#	297095
#
# Disc length: 4162 seconds
#
# Revision: 1
# Processed by: cddbd v1.5.1PL0 Copyright (c) Steve Scherf et al.
# Submitted via: CDex 1.50Beta5
#
DISCID=0c104012
DTITLE=Raymond Lefevre - Raymond Lefevre Deluxe
DYEAR=1995
DGENRE=Listening
TTITLE0=オペラ座の怪人
TTITLE1=ミュージック・オブ・ザ・ナイト〜「オペラ座の怪人」より
TTITLE2=メモリー〜「キャッツ」より
TTITLE3=オン・マイ・オウン〜「レ・ミゼラブル」より
TTITLE4=トゥナイト〜「ウエスト・サイド物語」より
TTITLE5=イエスタデイ
TTITLE6=夢の旅人
TTITLE7=ノルウェーの森
TTITLE8=ミッシェル
TTITLE9=愛をもう一度
TTITLE10=イエスタディ・ワンス・モア
TTITLE11=レイン・レイン
TTITLE12=エーデルワイス〜「サウンド・オブ・ミュージック」より
TTITLE13=パリの空の下
TTITLE14=パリの屋根の下
TTITLE15=パリ祭
TTITLE16=詩人の魂
TTITLE17=愛の讃歌
EXTD=
EXTT0=
EXTT1=
EXTT2=
EXTT3=
EXTT4=
EXTT5=
EXTT6=
EXTT7=
EXTT8=
EXTT9=
EXTT10=
EXTT11=
EXTT12=
EXTT13=
EXTT14=
EXTT15=
EXTT16=
EXTT17=
PLAYORDER=
